<svg viewBox="0 0 640 400" data-background-color="#282604"
     preserveAspectRatio="xMidYMid meet" height="400" width="640"
     xmlns="http://www.w3.org/2000/svg"
     xmlns:xlink="http://www.w3.org/1999/xlink">

    <g id="tight-bounds" transform="matrix(1,0,0,1,122.24000000000001,76.4)"><svg viewBox="0 0 395.52 247.2" height="247.2" width="395.52"><g><svg></svg></g><g><svg viewBox="0 0 395.52 247.2" height="247.2" width="395.52"><g transform="matrix(1,0,0,1,39.55199999999999,112.52654919373686)"><svg viewBox="0 0 316.416 22.14690161252629" height="22.14690161252629" width="316.416"><g><svg viewBox="0 0 316.416 22.14690161252629" height="22.14690161252629" width="316.416"><g><svg viewBox="0 0 316.416 22.14690161252629" height="22.14690161252629" width="316.416"><g><svg viewBox="0 0 316.416 22.14690161252629" height="22.14690161252629" width="316.416" id="textblock"><g><svg viewBox="0 0 316.416 22.14690161252629" height="22.14690161252629" width="316.416"><g transform="matrix(1,0,0,1,0,0)"><svg width="316.416" viewBox="3.5 -29.450000762939453 424.3699951171875 29.950000762939453" height="22.14690161252629" data-palette-color="#ff4057"><g class="undefined-text-0" data-fill-palette-color="primary" id="text-0"><path d="M27.25 0L12.65 0Q9.15 0 7.15-1 5.15-2 4.33-4 3.5-6 3.5-8.95L3.5-8.95 3.5-20.5Q3.5-23.4 4.3-25.38 5.1-27.35 7.1-28.38 9.1-29.4 12.65-29.4L12.65-29.4 27.25-29.4Q30.75-29.4 32.73-28.38 34.7-27.35 35.52-25.38 36.35-23.4 36.35-20.5L36.35-20.5 36.35-8.95Q36.35-4.55 34.4-2.27 32.45 0 27.25 0L27.25 0ZM14.1-4.8L14.1-4.8 25.85-4.8Q27.7-4.8 28.73-5.75 29.75-6.7 29.75-8.35L29.75-8.35 29.75-21.1Q29.75-22.55 28.7-23.58 27.65-24.6 25.85-24.6L25.85-24.6 14.1-24.6Q12.3-24.6 11.2-23.65 10.1-22.7 10.1-21.1L10.1-21.1 10.1-8.35Q10.1-6.65 11.18-5.73 12.25-4.8 14.1-4.8ZM66.4 0L52.5 0Q48.95 0 46.95-1 44.95-2 44.15-4 43.35-6 43.35-8.95L43.35-8.95 43.35-20.1Q43.35-24.9 45.5-27.18 47.65-29.45 52.5-29.45L52.5-29.45 67.55-29.45Q71-29.45 72.82-29.08 74.65-28.7 74.65-28.3L74.65-28.3 73.65-24.15Q72.8-24.3 68.62-24.48 64.45-24.65 56.5-24.65L56.5-24.65 53.95-24.65Q49.95-24.65 49.95-21.1L49.95-21.1 49.95-8.35Q49.95-6.65 50.82-5.73 51.7-4.8 53.95-4.8L53.95-4.8 56-4.8Q64.3-4.8 68.87-4.98 73.45-5.15 74.55-5.35L74.55-5.35 76.6-2.05Q76.6-1.8 75.77-1.3 74.95-0.8 72.75-0.4 70.55 0 66.4 0L66.4 0ZM98.25 0L91.64 0 91.59-24.65 78.59-24.65 78.59-29.45 111.3-29.45 111.3-24.65 98.25-24.65 98.25 0ZM139.54 0L124.94 0Q121.44 0 119.44-1 117.44-2 116.62-4 115.79-6 115.79-8.95L115.79-8.95 115.79-20.5Q115.79-23.4 116.59-25.38 117.39-27.35 119.39-28.38 121.39-29.4 124.94-29.4L124.94-29.4 139.54-29.4Q143.04-29.4 145.02-28.38 146.99-27.35 147.82-25.38 148.64-23.4 148.64-20.5L148.64-20.5 148.64-8.95Q148.64-4.55 146.69-2.27 144.74 0 139.54 0L139.54 0ZM126.39-4.8L126.39-4.8 138.14-4.8Q139.99-4.8 141.02-5.75 142.04-6.7 142.04-8.35L142.04-8.35 142.04-21.1Q142.04-22.55 140.99-23.58 139.94-24.6 138.14-24.6L138.14-24.6 126.39-24.6Q124.59-24.6 123.49-23.65 122.39-22.7 122.39-21.1L122.39-21.1 122.39-8.35Q122.39-6.65 123.47-5.73 124.54-4.8 126.39-4.8Z" fill="#ff4057" data-fill-palette-color="primary"></path><path d="M174.84 0L158.24 0Q154.84 0 153.24-0.3 151.64-0.6 151.64-1L151.64-1 153.64-5.35Q154.79-5.15 159.37-4.98 163.94-4.8 171.94-4.8L171.94-4.8 172.89-4.8Q175.04-4.8 175.94-5.58 176.84-6.35 176.84-8.2L176.84-8.2 176.84-9.2Q176.84-10.95 176.12-11.7 175.39-12.45 172.89-12.45L172.89-12.45 161.29-12.45Q156.24-12.45 153.94-14.33 151.64-16.2 151.64-20.45L151.64-20.45 151.64-21.25Q151.64-23.45 152.47-25.3 153.29-27.15 155.29-28.28 157.29-29.4 160.79-29.4L160.79-29.4 174.39-29.4Q177.79-29.4 179.89-29.05 181.99-28.7 181.99-28.3L181.99-28.3 180.99-24.1Q179.69-24.25 175.09-24.43 170.49-24.6 162.74-24.6L162.74-24.6 162.19-24.65Q159.89-24.65 159.09-23.73 158.29-22.8 158.24-21.4L158.24-21.4 158.24-20.55Q158.24-18.9 159.17-18.07 160.09-17.25 162.24-17.25L162.24-17.25 173.34-17.25Q176.54-17.25 178.79-16.6 181.04-15.95 182.24-14.23 183.44-12.5 183.44-9.15L183.44-9.15 183.44-8.35Q183.44-4.6 181.52-2.3 179.59 0 174.84 0L174.84 0ZM217.74 0L190.44 0 190.44-29.4 221.54-29.4 221.54-24.6 197.04-24.6 197.04-17.7 215.74-17.7 215.74-12.75 197.04-12.75 197.04-4.8 221.74-4.8 223.74-0.55Q223.74-0.35 222.39-0.18 221.04 0 217.74 0L217.74 0ZM251.29 0L237.39 0Q233.84 0 231.84-1 229.84-2 229.04-4 228.24-6 228.24-8.95L228.24-8.95 228.24-20.1Q228.24-24.9 230.39-27.18 232.54-29.45 237.39-29.45L237.39-29.45 252.44-29.45Q255.89-29.45 257.71-29.08 259.54-28.7 259.54-28.3L259.54-28.3 258.54-24.15Q257.69-24.3 253.51-24.48 249.34-24.65 241.39-24.65L241.39-24.65 238.84-24.65Q234.84-24.65 234.84-21.1L234.84-21.1 234.84-8.35Q234.84-6.65 235.71-5.73 236.59-4.8 238.84-4.8L238.84-4.8 240.89-4.8Q249.19-4.8 253.76-4.98 258.34-5.15 259.44-5.35L259.44-5.35 261.49-2.05Q261.49-1.8 260.66-1.3 259.84-0.8 257.64-0.4 255.44 0 251.29 0L251.29 0ZM289.43 0.5L273.88 0.5Q269.33 0.5 267.53-1.95 265.73-4.4 265.73-8.45L265.73-8.45 265.73-29.4 272.33-29.4 272.33-8.25Q272.33-5.9 273.48-5.1 274.63-4.3 276.33-4.3L276.33-4.3 286.93-4.3Q288.53-4.3 289.73-5.13 290.93-5.95 290.93-8.25L290.93-8.25 290.93-29.4 297.53-29.4 297.53-8.45Q297.53-5.75 296.78-3.75 296.03-1.75 294.28-0.63 292.53 0.5 289.43 0.5L289.43 0.5ZM336.73 0.5L336.73 0.5Q334.73 0.5 332.81-0.13 330.88-0.75 328.43-3.2L328.43-3.2 324.83-6.8Q322.63-9.05 320.01-10.1 317.38-11.15 313.43-11.15L313.43-11.15 311.88-11.15 311.88 0 305.28 0 305.28-25.4 304.78-29.45 326.93-29.45Q330.13-29.45 331.96-28.6 333.78-27.75 334.66-26.38 335.53-25 335.78-23.45 336.03-21.9 336.03-20.5L336.03-20.5 336.03-19.55Q336.03-18.45 335.73-17.1 335.43-15.75 334.58-14.45 333.73-13.15 332.16-12.25 330.58-11.35 328.03-11.2L328.03-11.2Q328.68-10.85 329.68-10.13 330.68-9.4 331.76-8.55 332.83-7.7 333.73-7 334.63-6.3 335.13-6L335.13-6Q336.93-4.95 338.33-4.55 339.73-4.15 340.63-4.1 341.53-4.05 341.68-4.05L341.68-4.05 340.68 0Q340.23 0.15 339.18 0.33 338.13 0.5 336.73 0.5ZM319.38-15.7L319.38-15.7Q321.28-15.7 322.78-15.78 324.28-15.85 325.48-15.95L325.48-15.95Q327.68-16.2 328.56-17.18 329.43-18.15 329.43-19.7L329.43-19.7 329.43-20.85Q329.43-22.45 328.58-23.55 327.73-24.65 325.53-24.65L325.53-24.65 311.88-24.65 311.88-15.95Q314.08-15.8 315.93-15.75 317.78-15.7 319.38-15.7ZM352.78 0L346.18 0 346.18-29.4 352.78-29.4 352.78 0ZM377.43 0L370.83 0 370.78-24.65 357.78-24.65 357.78-29.45 390.48-29.45 390.48-24.65 377.43-24.65 377.43 0ZM413.12 0L406.52 0 406.52-12.2 391.97-29.4 399.97-29.4 407.37-20.05 409.67-16.95 410.17-16.95 412.47-20.05 419.87-29.4 427.87-29.4 425.92-26.4 413.12-12 413.12 0Z" fill="#dcdcdc" data-fill-palette-color="secondary"></path></g></svg></g></svg></g></svg></g></svg></g></svg></g></svg></g><g mask="url(#13d0b5f1-58ad-40fb-bfd4-9d301df48a65)"><g transform="matrix(2.452, 0, 0, 2.452, 78.92750495910644, 1)"><svg xmlns:x="http://ns.adobe.com/Extensibility/1.0/" xmlns:i="http://ns.adobe.com/AdobeIllustrator/10.0/" xmlns:graph="http://ns.adobe.com/Graphs/1.0/" xmlns="http://www.w3.org/2000/svg" xmlns:xlink="http://www.w3.org/1999/xlink" xmlns:a="http://ns.adobe.com/AdobeSVGViewerExtensions/3.0/" version="1.1" x="0" y="0" viewBox="1.537000298500061 0 96.92699432373047 100" enable-background="new 0 0 100 100" xml:space="preserve" height="100" width="96.92699432373047" class="icon-none" data-fill-palette-color="accent" id="none"><g fill="#dcdcdc" data-fill-palette-color="accent"><path d="M85.102 75.82c0 0 8.129-2.684 5.751-14.886 0 0 0-0.005 0-0.007-0.001-0.011-0.003-0.024-0.005-0.037l-0.007-0.002c-0.136-0.565-0.642-0.985-1.248-0.985-0.712 0-1.287 0.576-1.287 1.289 0 0.026 0.007 0.051 0.008 0.078-0.001 0-0.003 0-0.006 0.002 0 0-1.402 14.548-13.434 7.625C74.875 68.897 78.384 76.723 85.102 75.82z" fill="#dcdcdc" data-fill-palette-color="accent"></path><path d="M14.9 75.82c6.717 0.903 10.225-6.923 10.225-6.923-12.03 6.923-13.433-7.625-13.433-7.625-0.001-0.002-0.003-0.002-0.005-0.002 0.002-0.027 0.009-0.052 0.009-0.078 0-0.713-0.577-1.289-1.288-1.289-0.606 0-1.111 0.42-1.248 0.985 0 0-0.005 0.002-0.005 0.002-0.003 0.013-0.005 0.026-0.008 0.037 0 0.002 0 0.007 0 0.007C6.769 73.136 14.9 75.82 14.9 75.82z" fill="#dcdcdc" data-fill-palette-color="accent"></path><path d="M15.657 89.886c-0.251 0.015-0.502 0.031-0.756 0.031-4.332 0-8.334-2.136-11.596-5.747-0.175-0.252-0.466-0.416-0.796-0.416-0.536 0-0.972 0.435-0.972 0.971 0 0.156 0.041 0.3 0.105 0.432 0-0.002-0.001-0.002-0.001-0.002 2.412 6.903 9.585 11.912 18.067 11.912 0.252 0 0.502-0.016 0.753-0.023C18.709 95.396 17.011 93.093 15.657 89.886z" fill="#dcdcdc" data-fill-palette-color="accent"></path><path d="M98.337 85.386c0.078-0.14 0.127-0.298 0.127-0.469 0-0.537-0.435-0.971-0.971-0.971-0.335 0-0.634 0.17-0.807 0.43 0-0.002 0-0.002 0-0.002-3.23 3.487-7.161 5.543-11.411 5.543-0.383 0-0.758-0.021-1.134-0.056-1.354 3.212-3.05 5.521-4.8 7.17 0.346 0.016 0.694 0.035 1.042 0.035 8.379 0 15.481-4.891 17.974-11.667l-0.019-0.014H98.337z" fill="#dcdcdc" data-fill-palette-color="accent"></path><path d="M96.962 69.544c0-0.854-0.691-1.544-1.542-1.544-0.603 0-1.12 0.349-1.373 0.853l0 0-0.004-0.002c-2.438 5.061-6.066 8.273-10.122 8.273-7.186 0-13.033-10.08-13.281-22.676 2.269-1.323 3.798-3.779 3.798-6.597 0-2.095-0.843-3.989-2.208-5.371 0.29-0.942 0.605-1.854 0.964-2.714 2.195-3.875 3.454-8.351 3.454-13.123C76.648 11.929 64.728 0 50.026 0 35.323 0 23.404 11.929 23.404 26.644c0 4.697 1.219 9.109 3.352 12.941 0.383 0.909 0.727 1.872 1.034 2.876-1.375 1.382-2.226 3.287-2.226 5.391 0 2.823 1.535 5.283 3.812 6.606-0.25 12.592-6.098 22.666-13.281 22.666-4.011 0-7.604-3.143-10.041-8.107C5.996 68.9 5.937 68.783 5.88 68.664 5.607 68.264 5.147 68 4.625 68c-0.839 0-1.52 0.679-1.52 1.521 0 0.171 0.035 0.33 0.086 0.482 0.022 0.059 0.05 0.113 0.068 0.173 2.676 8.927 7.176 11.76 10.303 12.368-0.045-0.251-0.092-0.504-0.134-0.765l-0.054-0.345 0.024-0.028c-0.034-1.098 0.542-2.036 1.46-2.332 0.192-0.063 0.392-0.096 0.594-0.096 0.978 0 1.907 0.731 2.297 1.797l0.01 0.005 0.072 0.257c0.006 0.021 0.388 1.345 1.179 2.977 0.231 0.015 0.461 0.033 0.695 0.033 3.585 0 6.936-1.447 9.794-3.958-2.121 3.534-4.785 6.28-7.783 7.964 1.525 1.544 3.583 2.437 5.778 2.437 3.027 0 5.782-1.7 7.18-4.33h0.001c1.798-3.637 2.761-9.605 2.761-9.605-0.098 1.752 0.166 5.048-1.146 8.92l-0.023 0.063c-1.34 3.685-4.861 6.156-8.773 6.156-2.882 0-5.571-1.322-7.338-3.571-0.012-0.016-0.024-0.031-0.037-0.046-0.143-0.184-0.281-0.371-0.411-0.567-0.224-0.296-0.433-0.6-0.63-0.905-0.015-0.022-0.028-0.046-0.042-0.067-0.183-0.285-0.355-0.574-0.516-0.857-0.016-0.028-0.029-0.053-0.045-0.079-0.159-0.287-0.308-0.568-0.446-0.843-0.008-0.019-0.017-0.035-0.026-0.054-0.614-1.236-1.005-2.325-1.195-2.903h-0.03l-0.134-0.534c-0.233-0.727-0.885-1.221-1.417-1.046-0.431 0.138-0.69 0.693-0.615 1.318l0.006 0.078H14.62c0.084 0.524 0.177 1.029 0.274 1.522 0 0 0 0 0 0 0.107 0.546 0.226 1.068 0.349 1.579 0.035 0.144 0.069 0.288 0.106 0.43 0.051 0.199 0.103 0.396 0.156 0.593 0.042 0.149 0.085 0.299 0.128 0.448 0.059 0.201 0.118 0.403 0.179 0.6 0.081 0.262 0.165 0.521 0.25 0.771 0.052 0.153 0.105 0.299 0.159 0.446 0.058 0.164 0.116 0.324 0.175 0.479 0.055 0.143 0.109 0.285 0.164 0.423 0.067 0.168 0.136 0.334 0.206 0.496 0.049 0.119 0.098 0.238 0.148 0.353 1.49 3.379 3.374 5.646 5.246 7.164 0.286 0.23 0.572 0.442 0.856 0.643 0.029 0.021 0.058 0.041 0.087 0.06 0.275 0.189 0.548 0.364 0.818 0.524 0.032 0.018 0.064 0.037 0.096 0.056 0.271 0.157 0.54 0.303 0.804 0.436 0.016 0.01 0.034 0.018 0.05 0.025 0.542 0.27 1.064 0.482 1.554 0.654 0.025 0.01 0.052 0.021 0.079 0.028 0.228 0.077 0.449 0.146 0.661 0.207 0.036 0.011 0.069 0.02 0.104 0.029 0.207 0.058 0.406 0.108 0.593 0.151 0.028 0.006 0.055 0.011 0.082 0.018 0.192 0.042 0.377 0.078 0.546 0.106l0.148 0.025c0.013 0.002 0.029 0.006 0.045 0.008 0.609 0.093 1.022 0.105 1.157 0.107l0.089-0.017 0.261 0.002c4.042 0 13.92-1.798 19.497-18.141l0.206-0.589 0.205 0.589c5.575 16.343 15.455 18.141 19.495 18.141l0.262-0.002L69.946 100c0.136-0.002 0.55-0.015 1.157-0.107 0.016-0.002 0.031-0.006 0.046-0.008l0.147-0.025c0.173-0.028 0.358-0.064 0.551-0.108 0.026-0.006 0.052-0.01 0.078-0.016 0.192-0.046 0.395-0.096 0.604-0.155 0.03-0.008 0.062-0.017 0.093-0.025 0.218-0.062 0.443-0.134 0.677-0.213 0.021-0.009 0.042-0.015 0.064-0.022 0.757-0.266 1.59-0.634 2.457-1.146 0.017-0.009 0.033-0.02 0.05-0.027 0.281-0.169 0.568-0.352 0.857-0.551 0.017-0.013 0.031-0.025 0.05-0.036 0.295-0.208 0.591-0.428 0.887-0.671l0 0c1.872-1.525 3.756-3.803 5.239-7.197 0.002-0.009 0.006-0.018 0.01-0.025 0.115-0.268 0.229-0.544 0.34-0.823 0.042-0.103 0.081-0.206 0.119-0.309 0.074-0.192 0.147-0.393 0.219-0.593 0.043-0.123 0.088-0.245 0.132-0.372 0.087-0.257 0.172-0.521 0.256-0.792 0.064-0.201 0.123-0.407 0.183-0.615 0.036-0.124 0.07-0.243 0.105-0.369 0.06-0.22 0.119-0.438 0.177-0.662 0.021-0.084 0.04-0.168 0.062-0.25 0.129-0.525 0.25-1.065 0.363-1.628 0.107-0.528 0.209-1.07 0.298-1.636l0 0 0.006-0.078c0.077-0.625-0.183-1.181-0.615-1.318-0.531-0.175-1.184 0.319-1.415 1.046l-0.134 0.534h-0.031c-0.147 0.451-0.417 1.211-0.819 2.112l-0.002 0.003c-0.12 0.265-0.25 0.54-0.391 0.825-0.009 0.019-0.019 0.037-0.027 0.056-0.135 0.27-0.284 0.547-0.439 0.828-0.017 0.026-0.032 0.053-0.046 0.078-0.159 0.282-0.328 0.566-0.512 0.848-0.015 0.021-0.027 0.044-0.04 0.065-0.196 0.302-0.401 0.602-0.624 0.894-0.116 0.177-0.238 0.348-0.365 0.515-0.005 0.005-0.009 0.009-0.013 0.015-1.766 2.3-4.49 3.655-7.406 3.655-3.914 0-7.434-2.472-8.773-6.156l-0.024-0.063c-1.142-2.622-1.047-7.168-1.146-8.92 0 0 0.965 5.969 2.761 9.605h0.002c1.397 2.63 4.152 4.33 7.181 4.33 2.26 0 4.377-0.943 5.914-2.575-2.855-1.671-5.396-4.313-7.443-7.681 2.82 2.42 6.106 3.813 9.62 3.813 0.128 0 0.255-0.013 0.384-0.017 0.798-1.64 1.183-2.972 1.188-2.993l0.072-0.257 0.008-0.005c0.391-1.065 1.319-1.797 2.296-1.797 0.204 0 0.403 0.032 0.597 0.096 0.919 0.296 1.492 1.234 1.46 2.332l0.023 0.028-0.055 0.345c-0.05 0.314-0.105 0.615-0.161 0.92 5.092-1.181 9.156-6.809 10.634-12.524l-0.006-0.003C96.912 69.98 96.962 69.769 96.962 69.544zM34.926 51.859c-1.587 0-2.873-1.287-2.873-2.875 0-1.587 1.286-2.874 2.873-2.874 1.585 0 2.872 1.287 2.872 2.874C37.797 50.572 36.511 51.859 34.926 51.859zM65.077 51.859c-1.587 0-2.872-1.287-2.872-2.875 0-1.587 1.285-2.874 2.872-2.874 1.585 0 2.871 1.287 2.871 2.874C67.948 50.572 66.662 51.859 65.077 51.859z" fill="#dcdcdc" data-fill-palette-color="accent"></path></g></svg></g></g></svg></g><defs><mask id="13d0b5f1-58ad-40fb-bfd4-9d301df48a65"><rect width="640" height="400" fill="white"></rect><rect width="348.05760000000004" height="32.603605502683806" fill="black" x="145.97119999999998" y="183.6981972486581" id="transform-me" transform="matrix(1,0,0,1,-122.24000000000001,-76.4)"></rect></mask></defs></svg><rect width="395.52" height="247.2" fill="none" stroke="none" visibility="hidden">

</rect></g></svg>